<svg xmlns="http://www.w3.org/2000/svg" viewBox="0 0 246.41 207.28"><defs><style>.cls-1{fill:#39e9ff;}.cls-2,.cls-3{fill:#39a7ff;}.cls-3{font-size:41.91px;font-family:CenturyGothic-BoldItalic, Century Gothic;font-weight:700;font-style:italic;}</style></defs><title>Asset 10</title><g id="Layer_2" data-name="Layer 2"><g id="Layer_1-2" data-name="Layer 1"><polygon class="cls-1" points="55.8 165.06 55.8 96.08 43.76 126 38.79 126 38.79 122.94 41.69 122.94 58.87 80.23 58.87 142.02 80.53 62.13 80.53 122.79 84.03 122.79 84.03 125.86 77.46 125.86 77.46 85.16 55.8 165.06"/><polygon class="cls-2" points="59.73 165.06 59.73 96.08 47.69 126.01 40.71 126.01 30.82 155.9 30.82 111.97 26.1 126.06 10.59 126.06 10.59 122.99 23.89 122.99 33.88 93.15 33.88 136.87 38.5 122.94 45.62 122.94 62.8 80.23 62.8 142.02 84.46 62.13 84.46 122.79 89.65 122.79 99.07 92.44 99.07 136.99 103.78 122.79 119.49 122.79 119.49 125.86 105.99 125.86 96 155.98 96 112.68 91.91 125.86 81.39 125.86 81.39 85.16 59.73 165.06"/><path class="cls-2" d="M123.25,125.59a7,7,0,0,1,5.24-6.57l.47-.11h0a3.93,3.93,0,0,1,.48-.06h0c.15,0,.3,0,.45,0h.58a7.05,7.05,0,0,1,6.8,7.29c0,.17,0,.35,0,.52s0,.07,0,.1,0,.34-.07.5a.37.37,0,0,0,0,.09c0,.17-.08.32-.12.47s0,0,0,0c-.05.17-.1.33-.16.48l0,.09c-.06.16-.12.32-.19.47l0,0c-.07.15-.14.29-.22.43l0,0-.26.43-.05.06c-.1.14-.2.28-.31.41h0c-.11.13-.22.26-.35.39l0,0-.38.36,0,0a7.42,7.42,0,0,1-.83.65l0,0-.45.27h0a7.28,7.28,0,0,1-1,.44h0a5.34,5.34,0,0,1-.53.16,7.19,7.19,0,0,1-2,.23A7,7,0,0,1,123.25,125.59ZM244.38,95.83,137.45,115a12.94,12.94,0,1,0,4.38,16.66L244.38,95.83"/><path class="cls-2" d="M7.52,90l6.74,2a99,99,0,0,0-6.49,35.38H2A129.15,129.15,0,0,1,7.52,90ZM9.83,83l7.33,2.15A98,98,0,0,1,31.5,63.06l-7.91-7.12A127.19,127.19,0,0,0,9.83,83ZM28.17,49.52,37,57.23A96.45,96.45,0,0,1,59.28,40.75L50.49,26.8A127,127,0,0,0,28.17,49.52ZM56.34,22.45l9.58,15.08a94.56,94.56,0,0,1,26.46-7.28L89.2,6A124.37,124.37,0,0,0,56.34,22.45ZM127.48,0A123.81,123.81,0,0,0,96.3,4l3.35,25.66c1.49-.07,3-.1,4.49-.1a95.37,95.37,0,0,1,22,2.57l7.16-32C131.4,0,129.44,0,127.48,0Zm13.34.72L133.11,34a95.24,95.24,0,0,1,24.76,12.11l21-35A123.22,123.22,0,0,0,140.82.72ZM185.2,14.27,163.66,50.42a97.86,97.86,0,0,1,16.22,16.45L217,38.14A126.09,126.09,0,0,0,185.2,14.27Zm36.48,29L184.31,72.84c3.85,5.52,6.11,10.13,8.79,18.23l50.84-11.15A127,127,0,0,0,221.68,43.26Z"/><text class="cls-3" transform="translate(0 194.43)">EMME-CARE</text></g></g></svg>